<svg xmlns="http://www.w3.org/2000/svg" viewBox="0 0 64 64" fill="none">
  <g opacity="0.78" stroke="#000" stroke-linecap="round" stroke-linejoin="round">
    <circle cx="32" cy="26" r="20" stroke-width="3" />
    <path d="M18 12v29" stroke-width="4" />
    <path d="M46 12v29" stroke-width="4" />
    <path d="M22 39h20" stroke-width="4" />
    <path d="M23 35c4-7 14-7 18 0" stroke-width="3" />
    <path d="M13 42c-1 4-3 7-5 7s-3-3-2-6c1-4 4-6 7-1Z" fill="#000" stroke-width="2" />
    <path d="M51 42c1 4 3 7 5 7s3-3 2-6c-1-4-4-6-7-1Z" fill="#000" stroke-width="2" />
    <path d="M27 46c0 6-2 10-5 10s-4-4-2-9" fill="#000" stroke-width="2" />
    <path d="M37 46c0 8-2 13-5 13s-5-5-2-13" fill="#000" stroke-width="2" />
    <path d="M44 46c1 6 3 10 6 10s4-4 2-9" fill="#000" stroke-width="2" />
  </g>
</svg>
