<svg xmlns="http://www.w3.org/2000/svg" viewBox="0 0 613 602" preserveAspectRatio="xMidYMid slice">
  <defs>
    <radialGradient id="skyGlow" cx="50%" cy="13%" r="70%">
      <stop offset="0%" stop-color="#143d4c"/>
      <stop offset="45%" stop-color="#082431"/>
      <stop offset="100%" stop-color="#04111c"/>
    </radialGradient>
    <linearGradient id="floorFade" x1="0" y1="0" x2="0" y2="1">
      <stop offset="0%" stop-color="#082434"/>
      <stop offset="40%" stop-color="#061a2b"/>
      <stop offset="100%" stop-color="#020813"/>
    </linearGradient>
    <filter id="blueGlow" x="-80%" y="-80%" width="260%" height="260%">
      <feGaussianBlur stdDeviation="3.2" result="blur"/>
      <feMerge>
        <feMergeNode in="blur"/>
        <feMergeNode in="SourceGraphic"/>
      </feMerge>
    </filter>
    <filter id="softGlow" x="-120%" y="-120%" width="340%" height="340%">
      <feGaussianBlur stdDeviation="8" result="blur"/>
      <feMerge>
        <feMergeNode in="blur"/>
        <feMergeNode in="SourceGraphic"/>
      </feMerge>
    </filter>
    <filter id="deepBlur" x="-30%" y="-30%" width="160%" height="160%">
      <feGaussianBlur stdDeviation="1.2"/>
    </filter>
    <linearGradient id="pinFill" x1="0" y1="0" x2="0" y2="1">
      <stop offset="0%" stop-color="#113e55"/>
      <stop offset="48%" stop-color="#071c2c"/>
      <stop offset="100%" stop-color="#020816"/>
    </linearGradient>
    <g id="pin">
      <path d="M0 109C-54 42-45-50 0-82C45-50 54 42 0 109Z" fill="url(#pinFill)" stroke="#64cfff" stroke-width="4.2" filter="url(#softGlow)"/>
      <circle cx="0" cy="-36" r="39" fill="#0a2837" stroke="#dff9ff" stroke-width="7" filter="url(#blueGlow)"/>
      <circle cx="0" cy="-36" r="54" fill="none" stroke="#52bdff" stroke-opacity=".35" stroke-width="3" filter="url(#softGlow)"/>
    </g>
  </defs>

  <rect width="613" height="602" fill="url(#skyGlow)"/>
  <rect y="208" width="613" height="394" fill="url(#floorFade)"/>

  <g opacity=".34" stroke="#5cc7ff" stroke-width="2" fill="none" filter="url(#deepBlur)">
    <path d="M-80 588C53 527 132 477 224 412C286 368 342 326 430 295C509 267 594 246 705 217"/>
    <path d="M-69 504C69 463 191 430 314 388C415 354 514 312 696 272"/>
    <path d="M-40 424C76 397 185 377 307 356C426 336 534 316 653 280"/>
    <path d="M-24 348C97 337 206 329 323 315C438 301 535 281 639 252"/>
    <path d="M0 286C92 292 187 293 281 285C390 276 483 251 614 232"/>
    <path d="M48 600C130 520 197 456 264 391C316 341 371 288 443 228"/>
    <path d="M151 602C196 513 239 445 281 383C315 333 349 283 396 220"/>
    <path d="M276 602C285 506 295 421 304 344C310 296 316 253 325 208"/>
    <path d="M421 602C390 502 363 428 343 360C328 309 315 262 305 210"/>
    <path d="M548 602C478 505 424 436 376 376C333 323 293 275 245 210"/>
  </g>

  <g opacity=".58" stroke="#64cfff" stroke-width="2.1" fill="none" filter="url(#blueGlow)">
    <path d="M-10 261H71L121 283H220L257 322H352L391 285H482L538 254H624"/>
    <path d="M36 329H127L169 352H275L314 388H404L452 343H575"/>
    <path d="M99 230H194L231 212H314L359 230H455L498 211H606"/>
    <path d="M62 406H156L201 443H298L319 516"/>
    <path d="M373 412H492L547 457H622"/>
    <path d="M306 360V602"/>
    <path d="M226 360H386"/>
    <path d="M250 389H363"/>
    <path d="M207 419H406"/>
  </g>

  <g opacity=".56" stroke="#7bd8ff" stroke-width="2" fill="none" filter="url(#blueGlow)">
    <ellipse cx="306" cy="360" rx="150" ry="31"/>
    <ellipse cx="306" cy="360" rx="121" ry="25"/>
    <ellipse cx="306" cy="360" rx="91" ry="19"/>
    <ellipse cx="306" cy="360" rx="61" ry="13"/>
    <ellipse cx="306" cy="360" rx="31" ry="7"/>
    <ellipse cx="77" cy="224" rx="64" ry="14"/>
    <ellipse cx="77" cy="224" rx="43" ry="10"/>
    <ellipse cx="77" cy="224" rx="24" ry="6"/>
    <ellipse cx="527" cy="224" rx="64" ry="14"/>
    <ellipse cx="527" cy="224" rx="43" ry="10"/>
    <ellipse cx="527" cy="224" rx="24" ry="6"/>
  </g>

  <g filter="url(#softGlow)">
    <ellipse cx="306" cy="360" rx="23" ry="5" fill="#e9fbff" opacity=".96"/>
    <ellipse cx="77" cy="224" rx="10" ry="3" fill="#e9fbff" opacity=".8"/>
    <ellipse cx="527" cy="224" rx="10" ry="3" fill="#e9fbff" opacity=".8"/>
  </g>

  <use href="#pin" x="306" y="251" transform="scale(2.03)"/>
  <use href="#pin" x="77" y="150" transform="scale(.7)"/>
  <use href="#pin" x="527" y="150" transform="scale(.7)"/>

  <rect width="613" height="602" fill="url(#floorFade)" opacity=".12"/>
  <rect width="613" height="602" fill="#000" opacity=".08"/>
</svg>
